<svg id="visual" viewBox="0 0 900 600" width="900" height="600" xmlns="http://www.w3.org/2000/svg" xmlns:xlink="http://www.w3.org/1999/xlink" version="1.1"><g transform="translate(456.9722828861568 317.5897443238714)"><path d="M101.8 -142.2C140.1 -133.7 185.1 -119.4 217.9 -87.7C250.8 -56.1 271.4 -7 258.6 32.6C245.8 72.3 199.6 102.6 160.1 126.6C120.5 150.7 87.6 168.4 55 170.2C22.3 172.1 -10 158 -56.7 159.6C-103.5 161.2 -164.7 178.5 -207.2 161.6C-249.6 144.8 -273.3 93.7 -276.1 42.6C-278.9 -8.5 -260.9 -59.7 -237.1 -106.8C-213.3 -153.9 -183.7 -196.8 -143.2 -204.3C-102.7 -211.8 -51.4 -183.9 -9.8 -168.6C31.7 -153.4 63.4 -150.7 101.8 -142.2" fill="#FF7F11"></path></g></svg>